<svg width="24" height="24" viewBox="0 0 24 24" fill="none" xmlns="http://www.w3.org/2000/svg">
<g id="search">
<path id="shape" fill-rule="evenodd" clip-rule="evenodd" d="M3.85002 10C3.85002 6.60345 6.60347 3.85 10 3.85C13.3966 3.85 16.15 6.60345 16.15 10C16.15 13.3966 13.3966 16.15 10 16.15C6.60347 16.15 3.85002 13.3966 3.85002 10ZM10 2.15C5.66459 2.15 2.15002 5.66457 2.15002 10C2.15002 14.3354 5.66459 17.85 10 17.85C11.8615 17.85 13.5717 17.2021 14.9173 16.1194L20.399 21.601C20.7309 21.933 21.2691 21.933 21.6011 21.601C21.933 21.2691 21.933 20.7309 21.6011 20.399L16.1194 14.9173C17.2021 13.5717 17.85 11.8615 17.85 10C17.85 5.66457 14.3355 2.15 10 2.15Z" fill="black"/>
</g>
</svg>
