<svg width="20" height="21" viewBox="0 0 20 21" fill="none" xmlns="http://www.w3.org/2000/svg">
<g id="up">
<path id="shape" d="M7.21375 5.29671C7.06297 5.44748 6.97061 5.65701 6.97091 5.88711L6.97091 5.98839C6.97091 6.44919 7.34394 6.82223 7.80415 6.82164L12.3571 6.82164L4.65532 14.5234C4.33005 14.8487 4.33005 15.3766 4.65532 15.7019C4.98059 16.0272 5.50856 16.0272 5.83383 15.7019L13.5356 8.00015V12.5531C13.5356 13.0139 13.9086 13.3869 14.3688 13.3863H14.4701C14.9309 13.3863 15.3039 13.0133 15.3034 12.5531V5.88711C15.3034 5.42632 14.9303 5.05328 14.4701 5.05387L7.80415 5.05387C7.57375 5.05387 7.36452 5.14593 7.21375 5.29671Z" fill="#34C759"/>
</g>
</svg>
