<?xml version="1.0" encoding="UTF-8"?>
<svg id="Layer_2" data-name="Layer 2" xmlns="http://www.w3.org/2000/svg" viewBox="0 0 874.69 392.08">
  <defs>
    <style>
      .cls-1 {
        fill: #f08047;
      }

      .cls-1, .cls-2, .cls-3, .cls-4 {
        stroke-width: 0px;
      }

      .cls-2 {
        fill: #ffc51e;
      }

      .cls-3 {
        fill: #fff;
      }

      .cls-4 {
        fill: #231f20;
      }
    </style>
  </defs>
  <g id="Layer_1-2" data-name="Layer 1">
    <g>
      <path class="cls-4" d="M874.69,237.36s-.82,55.3-1.08,70.72c-.06,3.79-2.86,6.98-6.61,7.58-2.31.37-2.77,1.3-2.62,3.4.65,9.13,1.12,18.28,1.78,27.41.28,3.77-.23,7.59-1.73,11.07-4.19,9.67-11.67,14.68-22.09,15.33-11.06.69-22.13,1.3-33.19,1.99-15.96,1-31.92,2.04-47.88,3.05-10.18.64-20.36,1.23-30.54,1.88-15.96,1.01-31.92,2.05-47.88,3.06-10.18.64-20.37,1.22-30.55,1.87-15.96,1.01-31.92,2.04-47.87,3.07-10.81.7-21.61,1.44-32.42,2.11-12.11.75-24.23,1.51-36.34,2.15-6.19.32-12.12-1.99-16.83-6.01-.99-.84-2.15-1.57-3.37-2.11-12.4-5.44-20.44-17.69-21.58-31.18-.67-7.93-.66-15.97-1.44-23.77-1.4-14.01,1.87-11.19-11.05-11.05-6.85.08-13.37.81-20.49.21-3.4-.29-5.79-.63-8.05-2.67-4.49-4.05-9.09-7.98-13.68-11.91-1.12-.96-2.39-1.76-3.59-2.63-.19,1.66-.57,9.7-1.85,11.65-3.32,5.05-7.54,6.57-12.37,6.56-23.44-.02-46.88,0-70.32.07-3.71.01-6.82-1.1-9.62-3.6-6.2-5.54-12.54-10.92-18.84-16.34-.45-.38-1.04-.59-1.57-.88-.15.56-.4,1.12-.42,1.68-.05,1.89,0,3.78,0,5.67-.04,10.75-6.52,13.02-19.58,13.09-13.52.07-48.7,3.48-53.89-.43-6.24-4.69-12.69-13.02-18.58-18.15-1.02-.89-1.58-1.13-1.85.55-.38,2.35-1,4.67-1.55,6.98-.76,3.22-2.38,6.21-4.88,8.36-4.3,3.71-8.95,4.09-13.58,4.06-18.9-.1-37.8-.23-56.7-.3-4.12-.02-7.61-1.5-10.68-4.13-2.77-2.38-5.49-4.82-8.25-7.22-3.33-2.89-6.68-5.77-10.04-8.62-.35-.3-.85-.41-1.29-.61-.12.45-.33.91-.33,1.36,0,2.65.12,5.29.1,7.94-.05,6.61-5.51,11.92-12.12,11.95-18.91.11-37.83.09-56.74.13-3.19,0-6.27-1.15-8.66-3.26-9-7.9-18.05-15.74-27.14-23.54-1.15-.99-3.24-2.27-4.61-2.93-5.9-2.86-8.97-7.39-8.99-14.12-.07-21.05-.27-42.09-.38-63.14C.55,160.4.29,107.08.02,53.77c0-1.13-.05-2.27,0-3.4.29-6.73,4.31-12.02,10.83-13.87,2.14-.61,4.46-.79,6.7-.8,23.57-.12,47.14-.17,70.71-.23,6.43-.02,12.86-.01,19.28.02,10.87.05,14.48,5.41,19.68,12.19,1.01,1.32,30.66,45.04,30.84,45.37.21-.39,2.56-10.25,3.2-12.69,2.76-10.46,5.49-20.93,8.27-31.39,2.23-8.38,7.57-12.58,16.05-12.63,3.91-.02,7.81.07,11.72.09,24.7.08,49.39.17,74.09.22,7.05.01,12.21,2.88,15.88,8.16,3.6,5.18,7.29,10.31,11.48,15.03,1.69,1.91,3.39,3.81,5.08,5.72,4.17,4.72,8.35,9.44,12.48,14.18.96,1.11,1.78,2.34,2.66,3.52.61-1.48,1.22-2.96,1.83-4.45.05-.12.06-.25.11-.36,2.7-6.21,3.22-12.33,1.05-19.03-2.53-7.81-.89-13.97,6.12-18.65,1.25-.84,2.68-1.41,4.15-1.74,6-1.37,5.73-.2,6.47-4.36,1.22-6.94,2.75-14.16,3.97-21.1.68-3.87,2.69-8.28,5.63-10.75,1.12-.65,5.96-4.35,12.34-2.08,11.21,3.98,21.62,9.36,32.49,13.9,3.39,1.42,6.41,3.58,8.77,6.4,3.89,4.63,9.28,9.99,13.2,14.6,1.25,1.48,2.32,2.11,4.19,1.31,1.39-.59,2.84-1,4.35-1.01,24.54-.18,50.02.7,74.54-.31,4.57-.19,8.52,3.14,12.35,7.26,9.34,10.05,19.94,24.9,25.09,32.57,1.67,1.87,2.51,3.95,2.55,6.49.18,14.61.49,29.22.66,43.84.21,17.89.31,35.79.47,53.69.05,5.17.18,10.33.14,15.5-.01,1.8.56,2.57,2.39,2.36.87-.1,1.76-.02,2.65-.03,16.51-.05,33.02-.15,49.54-.13,6.97,0,12.58,2.88,15.84,9.12,1.73,3.31,3.96,6.09,6.41,8.78.9.99,1.97,1.83,2.96,2.73.21-1.41.6-2.82.59-4.23-.24-53.69-.52-107.39-.79-161.08,0-1.32-.04-2.64,0-3.95.22-7.46,6.73-13.6,14.19-13.66,23.56-.2,47.12-.28,70.67-.37,5.23-.02,8.75,2.67,10.93,7.3.48,1.01.82,2.17,1.53,2.98,8.04,9.21,16.14,18.36,24.24,27.51.3.34.78.54,1.17.8.15-.43.4-.85.42-1.29.19-3.65.51-7.29.46-10.94-.05-3.75-.29-12.67-.47-19.75-.12-4.45,3.48-8.1,7.93-8.04,19.52.22,68.5.78,83.21.95,2.61.03,5.03,1.35,6.46,3.53,5.56,8.43,20.07,29.63,26.76,37.02,1.85,2.04,2.85,4.69,2.82,7.44-.13,9.76.17,19.56-.58,29.28-1.31,17.01-6.27,33.08-14.24,48.19-5.02,9.52-11.25,18.2-18.57,26.1-2.3,2.48-2.28,2.56.8,3.28,3.51.82,5.94,3.49,8.13,6.35,1.58,2.06,18,21.8,25.21,30.2,2.87,3.34,4.55,7.55,4.57,11.96M10.32,164.43h.19c.19,37.06.37,74.11.56,111.17,0,.13,0,.25,0,.38.06,4.78,1.55,6.39,6.24,6.5,7.43.18,14.86.4,22.29.37,11.47-.05,22.93-.3,34.4-.46.38,0,.76,0,1.13-.03,3.43-.31,5.57-2.31,5.98-5.71.12-.99.09-2.02.04-3.02-.53-12.08-1.19-24.15-1.59-36.23-.42-12.71-.76-25.43-.79-38.15-.01-4.23.76-8.52,1.68-12.67.62-2.82,2.59-4.9,5.83-5.11,2.83-.18,4.87,1.19,6.23,4.52.9,2.2,1.74,4.49,2.13,6.83,2.42,14.4,4.91,28.79,6.98,43.24,1.68,11.71,2.8,23.51,4.22,35.26.67,5.54,3.92,9.33,8.96,10.38,1.46.3,3.01.27,4.51.28,7.18.05,14.37.05,21.55.08,11.09.05,22.18.14,33.26.12,1.87,0,3.78-.28,5.61-.67,5.01-1.08,6.69-5.04,7.47-9.41,2.55-14.37,5.11-28.75,7.36-43.17,1.75-11.19,2.97-22.46,4.56-33.68.42-2.97,1.14-5.94,2.06-8.8,1.06-3.32,3.19-4.85,6.02-4.81,3.2.05,5.06,1.94,6.18,4.72.42,1.04.8,2.15.92,3.26.53,5.26,1.35,10.52,1.35,15.78.02,22.55-.09,45.11-.43,67.66-.08,5.69,3.35,8.6,8.49,8.5,16.63-.33,33.28-.26,49.92-.34.63,0,1.26.02,1.89-.02,3.71-.25,6.09-2.47,6.44-6.12.14-1.5.08-3.02.08-4.53-.35-70.34-.71-140.68-1.06-211.02,0-1.13.01-2.27-.03-3.4-.22-5.55-5.01-9.83-10.56-9.86-27.81-.14-55.62-.25-83.43-.33-5.29-.02-6.82,1.23-8.2,6.42-2.03,7.66-4.03,15.33-6.05,23-4.89,18.49-9.77,36.98-14.7,55.46-1.21,4.53-3.81,6.61-7.97,6.66-4.04.04-6.8-2.14-8.13-6.51-5.94-18.81-17.72-54.88-21.58-72.32-1.75-7.91-5.94-13.82-14.24-13.38-5.53.3-11.09-.03-16.63-.03-23.57,0-47.14,0-70.7.04-7.48.01-9,1.59-8.96,9.14.18,36.68.37,73.36.55,110.05M629.31,159.52c.18,36.43.36,72.86.56,109.29.03,5.6-.28,4.73,4.65,4.47,14.71-.79,29.42-1.77,44.13-2.68,8.04-.5,16.09-.99,24.13-1.5,2.98-.19,3.06-.31,3.12-3.4.06-3.65-.01-7.31.21-10.96.25-4.16.61-8.33,2.36-12.17,2.13-4.69,7.72-6.83,12.14-4.18,2.56,1.54,4.03,3.8,4.95,6.7,1.28,4.05,2.65,8.09,4.53,11.9,4.85,9.85,2.77,10.08,8.23,9.76,14.96-.88,29.92-1.79,44.88-2.72,10.31-.64,20.6-1.46,30.91-1.99,6.26-.32,12.57-1.52,18.81-.07,2.18.51,2.56-.03,2.58-2.03.1-9.45.32-18.89.49-28.33.16-9.07.25-18.14.47-27.2.14-5.74-.22-6.2-6.01-6.18-1.13,0-2.27,0-3.4.02-19.4.28-38.8.6-58.21.83-3.02.04-6.05-.11-9.05-.45-4.64-.53-8.11-4.12-8.95-8.94-.78-4.45,1.21-8.15,5.76-10.33,15.13-7.23,29.02-16.3,40.61-28.5,27.1-28.52,36.42-63.03,33.6-101.48-.25-3.36-3.12-5.93-6.49-5.91-22.95.1-45.91.22-68.86.34-3.63.02-3.67.06-3.5,3.85.53,12.23.56,24.43-1.28,36.58-2.07,13.57-5.74,26.63-13.5,38.13-3.07,4.55-6.69,8.9-10.74,12.6-6.18,5.64-16.23,2.96-19.04-4.74-.72-1.96-.94-4.19-.96-6.29-.06-6.04.2-12.09.15-18.13-.15-19.03-.38-38.06-.59-57.08,0-.75-.08-1.51-.15-2.26-.13-1.51-1.04-2.23-2.48-2.34-.88-.06-1.76-.04-2.65-.03-21.68.11-43.36.22-65.05.33-.94,0-1.88-.04-2.81.07-2.29.27-4.01,2.22-4.11,4.52-.04.91,0,1.83.01,2.75.18,35.92.36,71.85.54,107.77M422.54,162.29c.19,37.05.37,74.11.56,111.16,0,1.22,0,2.45.06,3.67.08,1.7,1.42,3.11,3.12,3.19.88.04,1.76.02,2.65.01,32.64-.13,65.29-.25,97.93-.4,2.76-.01,5.52-.11,8.27-.28,20.54-1.3,41.07-2.64,61.61-3.94,2.96-.19,5.33-2.45,5.75-5.39.14-.95.2-1.92.2-2.88-.07-17.14-.22-34.28-.22-51.42,0-6.25-4.26-9.18-9.53-9.12-24.83.26-49.66.21-74.48.27-1.41,0-2.83.04-4.24.01-7.09-.13-12.68-6.11-12.77-13.19-.23-17.92-.5-35.85-.73-53.77-.15-11.59-.27-23.18-.37-34.78-.14-16.64-.23-33.27-.36-49.91-.02-2.1-.06-4.2-.21-6.29-.15-2.17-1.9-3.95-4.07-4.11-.88-.06-1.76-.01-2.65,0-22.06.11-44.11.22-66.17.33q-4.94.03-4.93,4.92c.19,37.31.38,74.61.56,111.92M848.72,334.15c-.97-15.7-1.74-30.16-2.79-44.6-.79-10.92-10.26-19.16-21.19-18.49-8.12.5-16.24,1.02-24.37,1.52-9.93.62-19.86,1.22-29.78,1.84-16.21,1.02-32.42,2.07-48.63,3.09-9.93.63-19.86,1.21-29.79,1.84-15.71,1-31.41,2.06-47.12,3.05-14.83.93-29.67,1.78-44.5,2.72-15.58.98-31.16,2.02-46.74,3.03-11.56.75-23.11,1.67-34.69,2.16-9.96.43-19.29,9.09-18.36,21.2.29,3.77.53,7.54.78,11.3.76,11.56,1.38,23.13,2.3,34.67.85,10.61,10.3,18.27,20.86,17.46,11.3-.87,22.61-1.53,33.92-2.23,14.7-.92,29.41-1.78,44.12-2.71,19.48-1.24,38.95-2.55,58.42-3.78,15.21-.96,30.42-1.8,45.63-2.77,23.62-1.5,47.24-3.09,70.86-4.6,17.43-1.12,34.87-2.15,52.3-3.27,4.67-.3,9.22-1.99,12.69-5.13,5.47-4.95,6.63-11.3,6.07-16.31M364.02,281.4s0-.1,0-.15c7.56-.04,15.12-.07,22.68-.12,7.47-.05,10.11-2.63,10.01-9.95-.29-20.53-.7-41.05-.94-61.58-.22-18.62.04-37.25-.54-55.85-.24-7.57-1.41-15.09-3.75-22.29-5.79-17.81-12.37-35.37-18.66-53.03-1.98-5.57-2.7-11.24-1.47-17.08.52-2.46,1-4.93,1.57-7.38.64-2.72-.29-4.77-2.72-5.97-1.55-.77-3.27-1.62-4.93-1.64-8.18-.12-16.38-.27-24.55.16-7.43.38-11.06,5.71-8.8,12.68,2.13,6.57,1.54,12.84-.64,19.2-5.55,16.18-10.78,32.47-16.6,48.55-3.75,10.39-5.96,20.86-5.23,31.92.16,2.48.36,4.95.38,7.43.2,32.62.36,65.24.5,97.86.01,3.27-.3,6.54-.21,9.81.1,3.84,3.19,6.94,7.03,6.99,15.62.19,31.24.29,46.86.43M347.65,37.84l5.46-.03c.94,0,.89-.73.98-1.3.54-3.6,1.87-11.19,2.51-15.33.34-2.18.49-4.09,2.87-4.68,2.43-.6,21.87,8.1,30.39,11.51,1.79.71,2.18-1.71,2.93-3.57.74-1.83-.49-2.17-1.66-2.67-10.27-4.39-20.35-8.4-30.66-12.7-3.98-1.66-8.11.76-8.91,5"/>
      <path class="cls-1" d="M848.72,334.15c-.97-15.7-1.74-30.16-2.79-44.6-.79-10.92-10.26-19.16-21.19-18.49-8.12.5-16.24,1.02-24.37,1.52-9.93.62-19.86,1.22-29.79,1.84-16.21,1.02-32.42,2.07-48.63,3.09-9.93.63-19.86,1.21-29.79,1.84-15.71,1-31.41,2.06-47.12,3.05-14.83.93-29.66,1.78-44.5,2.72-15.58.98-31.16,2.02-46.74,3.03-11.56.75-23.11,1.67-34.69,2.16-9.96.43-19.29,9.09-18.36,21.2.29,3.77.53,7.54.78,11.3.76,11.56,1.38,23.13,2.3,34.67.85,10.61,10.3,18.27,20.86,17.46,11.3-.87,22.61-1.53,33.92-2.23,14.7-.92,29.41-1.78,44.12-2.71,19.48-1.24,38.95-2.55,58.42-3.78,15.21-.96,30.42-1.8,45.63-2.77,23.62-1.5,47.24-3.09,70.86-4.6,17.43-1.12,34.87-2.15,52.3-3.27,4.67-.3,9.22-1.99,12.69-5.13,5.47-4.95,6.63-11.3,6.07-16.31"/>
      <path class="cls-2" d="M10.32,164.34h.19c.19,37.06.37,74.11.56,111.17,0,.13,0,.25,0,.38.06,4.78,1.55,6.39,6.24,6.5,7.43.18,14.86.4,22.29.37,11.47-.05,22.93-.3,34.4-.46.38,0,.76,0,1.13-.03,3.43-.31,5.57-2.31,5.98-5.71.12-.99.09-2.02.04-3.02-.53-12.08-1.19-24.15-1.59-36.23-.42-12.71-.76-25.43-.79-38.15-.01-4.23.76-8.52,1.68-12.67.62-2.82,2.59-4.9,5.83-5.11,2.83-.18,4.87,1.19,6.23,4.52.9,2.2,1.74,4.49,2.13,6.83,2.42,14.4,4.91,28.79,6.98,43.24,1.68,11.71,2.8,23.51,4.22,35.26.67,5.54,3.92,9.33,8.96,10.38,1.46.3,3.01.27,4.51.28,7.18.05,14.37.05,21.55.08,11.09.05,22.18.14,33.26.12,1.87,0,3.78-.28,5.61-.67,5.01-1.08,6.69-5.04,7.47-9.41,2.55-14.37,5.11-28.75,7.36-43.17,1.75-11.19,2.97-22.46,4.56-33.68.42-2.97,1.14-5.94,2.06-8.8,1.06-3.32,3.19-4.85,6.02-4.81,3.21.05,5.06,1.94,6.18,4.72.42,1.04.8,2.15.92,3.26.53,5.26,1.35,10.52,1.35,15.78.02,22.55-.09,45.11-.43,67.66-.08,5.69,3.35,8.6,8.49,8.5,16.63-.33,33.28-.26,49.92-.34.63,0,1.26.02,1.89-.02,3.71-.25,6.09-2.47,6.44-6.12.14-1.5.08-3.02.08-4.53-.35-70.34-.71-140.68-1.06-211.02,0-1.13.01-2.27-.03-3.4-.22-5.55-5.01-9.83-10.56-9.86-27.81-.14-55.62-.25-83.43-.33-5.29-.02-6.82,1.23-8.2,6.42-2.03,7.66-4.03,15.33-6.05,23-4.89,18.49-9.77,36.98-14.7,55.46-1.21,4.53-3.81,6.61-7.97,6.66-4.04.04-6.8-2.14-8.13-6.51-5.94-18.81-17.72-54.88-21.58-72.32-1.75-7.91-5.94-13.82-14.24-13.38-5.53.29-11.09-.03-16.63-.03-23.57,0-47.14,0-70.7.04-7.48.01-9,1.59-8.96,9.14.18,36.68.37,73.36.55,110.05"/>
      <path class="cls-2" d="M629.31,159.43c.18,36.43.36,72.86.56,109.29.03,5.6-.28,4.73,4.65,4.47,14.71-.79,29.42-1.77,44.13-2.68,8.04-.5,16.09-.99,24.13-1.5,2.98-.19,3.06-.31,3.12-3.4.06-3.65-.01-7.31.21-10.96.25-4.16.61-8.33,2.36-12.17,2.13-4.69,7.72-6.83,12.14-4.18,2.57,1.54,4.03,3.8,4.95,6.7,1.28,4.05,2.65,8.09,4.53,11.9,4.85,9.85,2.77,10.08,8.23,9.76,14.96-.88,29.92-1.79,44.88-2.72,10.31-.64,20.6-1.46,30.91-1.99,6.26-.32,12.57-1.52,18.81-.07,2.18.51,2.56-.03,2.58-2.03.1-9.45.32-18.89.49-28.33.16-9.07.25-18.14.48-27.2.14-5.74-.22-6.2-6.01-6.18-1.13,0-2.27,0-3.4.02-19.4.28-38.8.6-58.21.83-3.02.04-6.05-.11-9.05-.45-4.64-.53-8.11-4.12-8.95-8.94-.78-4.45,1.21-8.15,5.76-10.33,15.13-7.23,29.02-16.3,40.61-28.5,27.1-28.52,36.42-63.03,33.6-101.48-.25-3.36-3.12-5.93-6.49-5.91-22.95.1-45.91.22-68.86.34-3.63.02-3.67.06-3.5,3.85.53,12.23.56,24.43-1.28,36.58-2.07,13.57-5.74,26.63-13.5,38.13-3.07,4.55-6.69,8.9-10.74,12.6-6.18,5.64-16.23,2.96-19.04-4.74-.72-1.96-.94-4.19-.96-6.29-.06-6.04.2-12.09.15-18.13-.15-19.03-.38-38.06-.59-57.08,0-.75-.08-1.51-.15-2.26-.13-1.51-1.04-2.23-2.48-2.34-.88-.06-1.76-.04-2.65-.03-21.68.11-43.36.22-65.05.33-.94,0-1.88-.04-2.81.07-2.29.27-4.01,2.22-4.11,4.52-.04.91,0,1.83.01,2.75.18,35.92.36,71.85.54,107.77"/>
      <path class="cls-2" d="M422.54,162.2c.19,37.06.37,74.11.56,111.16,0,1.22,0,2.45.06,3.67.08,1.7,1.42,3.11,3.12,3.19.88.04,1.76.02,2.65.01,32.64-.13,65.29-.25,97.93-.4,2.76-.01,5.52-.11,8.27-.28,20.54-1.3,41.07-2.64,61.61-3.94,2.96-.19,5.33-2.45,5.75-5.39.14-.95.2-1.92.2-2.88-.07-17.14-.22-34.28-.22-51.42,0-6.25-4.26-9.18-9.53-9.12-24.83.26-49.66.21-74.48.27-1.41,0-2.83.04-4.24.01-7.09-.13-12.68-6.11-12.77-13.19-.23-17.92-.5-35.85-.73-53.77-.15-11.59-.27-23.18-.37-34.78-.14-16.64-.23-33.27-.36-49.91-.02-2.1-.06-4.2-.21-6.29-.15-2.17-1.9-3.95-4.07-4.11-.88-.06-1.76-.01-2.65,0-22.06.11-44.12.22-66.17.33q-4.94.03-4.93,4.92c.19,37.31.38,74.61.56,111.92"/>
      <path class="cls-3" d="M364.01,281.31s0-.1,0-.15c7.56-.04,15.12-.07,22.68-.12,7.47-.05,10.11-2.63,10.01-9.95-.29-20.53-.7-41.05-.94-61.58-.22-18.62.04-37.25-.54-55.85-.24-7.57-1.41-15.09-3.76-22.29-5.79-17.81-12.37-35.37-18.66-53.03-1.98-5.57-2.7-11.24-1.47-17.08.52-2.46,1-4.93,1.57-7.38.64-2.72-.29-4.77-2.72-5.97-1.55-.77-3.27-1.62-4.93-1.64-8.18-.12-16.38-.27-24.55.16-7.43.38-11.06,5.71-8.8,12.68,2.13,6.57,1.54,12.84-.64,19.2-5.55,16.18-10.78,32.47-16.6,48.55-3.75,10.39-5.96,20.86-5.23,31.92.16,2.48.36,4.95.38,7.43.2,32.62.36,65.24.5,97.86.01,3.27-.3,6.54-.21,9.81.1,3.84,3.19,6.94,7.03,6.99,15.62.19,31.24.29,46.86.43"/>
      <path class="cls-2" d="M384.61,281.51c7.21-.05,12.85-.46,12.75-7.52-.28-19.81.17-114.45-2.57-131.99-1-6.4-6.54-20.79-8.65-26.9-7.3-21.11-12.8-35.28-12.8-35.28,0,0-7.52-1.8-17.06,4.51-4.58,3.03-16,3.86-24.43-7.76-5.76,16.45-12.93,37.9-18.92,55.59-5.88,14.67-3.51,39.91-3.5,41.87.19,31.39-.05,59.96.09,91.35.01,3.16-.29,6.32-.21,9.47.09,3.72,4.55,6.46,8.27,6.51,15.05.18,59.74.21,67.04.16"/>
      <path class="cls-3" d="M822.24,322.31c.2,2.38.3,4.78.62,7.15.23,1.76-.4,2.67-2.13,2.79-2.39.17-4.79.48-7.16.31-1.02-.07-2.25-1.01-2.88-1.91-2.59-3.72-4.97-7.58-7.46-11.36-.25-.38-.7-.63-1.06-.94-.07.45-.21.91-.18,1.36.2,3.64.34,7.29.68,10.93.21,2.19-.64,2.93-2.75,2.91-1.88-.02-3.77.22-5.64.42-1.89.2-2.81-.5-2.89-2.47-.17-4.02-.46-8.04-.71-12.06-.39-6.28-.83-12.57-1.16-18.85-.15-2.93.13-3.15,3.08-3.41q7.56-.68,11.68,5.75c1.43,2.23,2.85,4.46,4.31,6.66.25.38.69.65,1.05.96.17-.53.51-1.07.49-1.6-.13-3.4-.22-6.81-.57-10.18-.19-1.81.35-2.58,2.13-2.68,10.89-.61,8.48-2.45,9.5,7.76.61,6.13.77,12.31,1.13,18.47h-.07Z"/>
      <path class="cls-3" d="M785.08,317.5c.06,11.19-7.65,18.83-19.06,18.91-11.05.07-18.65-7.73-18.76-19.24-.11-11.37,7.73-19.15,19.25-19.13,10.96.02,18.51,7.94,18.57,19.47M773.1,317.34c-.09-4.89-2.9-8.14-7.02-8.1-3.65.03-6.26,2.48-6.7,6.27-.56,4.86,1.59,8.87,5.2,9.65.24.05.5.06.75.08,4.67.47,7.87-2.78,7.78-7.91"/>
      <path class="cls-3" d="M566.85,348.31c-6.12.15-6.25.16-6.7-5.81-.7-9.14-1.23-18.3-1.79-27.45-.17-2.83.03-3.03,2.78-3.22,4.01-.27,8.02-.68,12.04-.69,10.52-.02,17.47,6.85,18.11,17.67.59,9.93-6.07,17.67-16.17,18.76-2.75.3-5.5.49-8.26.74M570.31,326.34c.31,3.8.62,6.8.77,9.81.08,1.54.68,1.84,2.13,1.68,3.85-.42,6.07-2.81,6.35-7.09.32-4.98-1.88-8.9-5.43-9.63-.36-.08-.75-.06-1.13-.07-2.56-.1-2.7.03-2.71,2.7,0,1.13,0,2.26.01,2.6"/>
      <path class="cls-3" d="M694.33,340.12c-.75.05-1.53,0-2.25.15-2.47.55-3.87-.47-4.32-2.86-.43-2.3-1.68-3.2-4-2.7-.73.16-1.5.06-2.26.08-3.98.15-4.09.12-5.07,4.15-.44,1.81-1.37,2.57-3.09,2.64-2.26.1-4.52.23-6.79.28-2.84.06-3.07-.19-2.31-3.02,2.31-8.61,4.69-17.2,7.04-25.8.53-1.94,1.17-3.85,1.57-5.82.36-1.74,1.2-2.63,3.03-2.7,2.89-.11,5.77-.31,8.65-.54,1.93-.15,2.58,1.08,3.19,2.58,2.66,6.51,5.37,13,8.05,19.5,1.39,3.37,2.76,6.74,4.13,10.12,1.44,3.54,1.37,3.65-2.57,3.82-1,.04-2.01.02-3.02.02,0,.03,0,.06,0,.09M679.3,325.31c.11.32.26,1.32.49,1.34,1.07.08,2.19-.01,3.24-.26.23-.06.47-1.06.33-1.52-.5-1.66-1.15-3.27-1.76-4.89-.13-.34-.35-.65-.53-.97-.18.32-.44.61-.53.95-.42,1.68-.79,3.37-1.25,5.34"/>
      <path class="cls-3" d="M614.12,327.03c-.3-5.15-.63-10.3-.87-15.46-.13-2.9-.06-2.91,2.77-3.18,1.88-.18,3.77-.27,5.64-.48,1.5-.17,2.55.26,2.63,1.88.44,8.54,1.27,17.09,1.07,25.62-.13,5.42-4.02,8.98-9.34,10-3.26.63-6.8.71-10.08.17-5.11-.85-8.42-4.44-9.03-9.45-1-8.11-1.29-16.3-1.87-24.45-.1-1.39.53-2.12,1.95-2.18,1.89-.08,3.77-.21,5.66-.28,3.24-.12,3.46,0,3.69,3.21.44,6.15.76,12.31,1.15,18.47.06,1,.07,2.03.37,2.97.5,1.61,1.73,2.53,3.43,2.37,1.83-.17,3.03-1.2,3.06-3.18.03-2.01-.01-4.02-.02-6.04-.07,0-.13,0-.2,0"/>
      <path class="cls-3" d="M538.48,349.89c-2.26.18-4.51.34-6.77.56-1.81.18-2.82-.33-2.94-2.38-.58-10.42-1.22-20.84-1.89-31.26-.13-1.99.47-3,2.65-3.1,6.91-.32,13.81-.76,20.72-1.2,1.59-.1,2.37.54,2.46,2.09,0,.13.05.25.05.37.31,8.42,1.25,7.21-6.35,7.68-1.76.11-3.53.08-5.27.28-1.14.14-2.64-.04-2.45,2.01.17,1.88,1.25,1.78,2.62,1.67,2.38-.19,4.78-.23,7.16-.37,1.54-.09,2.44.41,2.21,2.13-.03.25-.02.5-.02.75q.08,6.1-6.04,6.44c-.88.05-1.76.08-2.64.17-1.44.14-2.73.3-2.49,2.39.22,1.86,1.37,1.83,2.68,1.74,3.14-.22,6.27-.52,9.41-.67,3.11-.15,3.11-.08,3.47,2.95q.79,6.7-6.02,7.12c-3.51.22-7.02.49-10.54.74,0-.05,0-.09-.01-.14"/>
      <path class="cls-3" d="M649.3,343.81c-15.09-.04-20.26-12.02-19.06-22.29,1.72-14.73,16.38-18.83,27.06-14.17,1.65.72,2.05,1.65,1.36,3.21-.3.69-.55,1.41-.87,2.09-.68,1.47-1.05,3.44-2.21,4.2-.89.58-2.78-.45-4.24-.63-3.33-.4-6.38.27-8.26,3.29-2.12,3.41-1.95,7.03.22,10.34,1.93,2.95,4.88,3.76,8.28,2.92.37-.09.75-.12,1.11-.21,1.4-.32,3.66-1.35,4.04-.87,1.69,2.13,2.93,4.65,4.11,7.13.16.34-.77,1.48-1.42,1.88-3.39,2.09-7.13,3.06-10.12,3.11"/>
      <path class="cls-3" d="M725.36,306.19c0,.25,0,.5,0,.75q-.06,4.41-4.61,4.79c-.5.04-1.01.17-1.5.12-2.14-.19-2.49.97-2.37,2.79.42,6.4.74,12.8,1.11,19.2.3,5.12.51,4.92-4.72,5.18-7.52.37-5.88,1.13-6.56-5.88-.58-6-.85-12.04-1.1-18.07-.08-1.8-.62-2.49-2.44-2.3-1.75.19-3.52.1-5.27.26-1.49.13-2.08-.51-2.09-1.91-.01-1.01-.08-2.01-.12-3.02-.18-4.83-.18-4.85,4.78-5.14,7.15-.42,14.31-.79,21.47-1.2,3.47-.2,3.47-.23,3.43,3.29,0,.38,0,.75,0,1.13,0,0,0,0,0,0"/>
      <path class="cls-3" d="M742.81,332.79c.07,4.32,1.27,4.47-5.1,4.68-6.01.2-5.91,1.66-6.31-5.86-.48-8.92-1.14-17.84-1.64-26.76-.2-3.55-.11-3.56,3.29-3.82.63-.05,1.26-.03,1.89-.09,5.77-.54,5.89-1.67,6.25,5.33.44,8.55,1.04,17.09,1.62,26.52"/>
      <path class="cls-3" d="M317.12,216.88c-.08-16.38-.17-32.77-.24-49.15,0-1.59-.21-4.24.6-5.51,1.29-2.02,5.51-1.17,5.44,2.32.14.86.08,1.76.09,2.64.17,33.15.34,66.29.5,99.44,0,.88.05,2.74-.04,3.61-.16,1.61-1.14,1.53-2.73,1.62-1.72.1-2.97.13-3.27-1.66-.16-.98-.09-2.77-.09-3.77-.09-16.51-.17-33.02-.25-49.53"/>
      <path class="cls-3" d="M320.34,155.19h-.95c-1.53.01-2.78-1.22-2.79-2.76v-.95c-.01-1.53,1.22-2.78,2.76-2.79h.95c1.53-.01,2.77,1.22,2.78,2.75v.95c.01,1.53-1.22,2.78-2.76,2.79"/>
      <path class="cls-3" d="M319.19,131.8c.47-1.48,7.64-21.97,10.95-31.88.41-1.22,1.61-4.14,2.15-5.27.61-1.26,1.37-1.99,2.98-2.14,2.14-.2,2.95.76,2.63,1.71-.51,1.52-.91,2.94-1.18,3.77-3.55,10.75-11.57,34.12-11.98,35.02-.61,1.34-6.88,2.51-5.55-1.22"/>
      <path class="cls-3" d="M347.65,37.84l5.46-.03c.94,0,.89-.73.98-1.3.54-3.6,1.87-11.19,2.51-15.33.34-2.18.49-4.09,2.87-4.68,2.43-.6,21.87,8.1,30.39,11.51,1.79.71,2.18-1.71,2.93-3.57.74-1.83-.49-2.17-1.66-2.67-10.27-4.39-20.35-8.4-30.66-12.7-3.98-1.66-8.11.76-8.91,5l-3.91,23.76Z"/>
    </g>
  </g>
</svg>